{
  "asset": {
    "generator": "Khronos glTF Blender I/O v4.0.44",
    "version": "2.0"
  },
  "scene": 0,
  "scenes": [
    {
      "name": "Scene",
      "nodes": [
        0
      ]
    }
  ],
  "nodes": [
    {
      "mesh": 0,
      "name": "Prop_Locker"
    }
  ],
  "materials": [
    {
      "doubleSided": true,
      "name": "MI_Trim_02",
      "pbrMetallicRoughness": {
        "baseColorFactor": [
          0.24,
          0.30,
          0.31,
          1.0
        ],
        "metallicFactor": 0.25,
        "roughnessFactor": 0.72
      }
    }
  ],
  "meshes": [
    {
      "name": "Cube.116",
      "primitives": [
        {
          "attributes": {
            "POSITION": 0,
            "NORMAL": 1,
            "TEXCOORD_0": 2
          },
          "indices": 3,
          "material": 0
        }
      ]
    }
  ],
  "accessors": [
    {
      "bufferView": 0,
      "componentType": 5126,
      "count": 474,
      "max": [
        0.4915100932121277,
        2.6685118675231934,
        0.26772475242614746
      ],
      "min": [
        -0.4915100932121277,
        0,
        -0.2316550314426422
      ],
      "type": "VEC3"
    },
    {
      "bufferView": 1,
      "componentType": 5126,
      "count": 474,
      "type": "VEC3"
    },
    {
      "bufferView": 2,
      "componentType": 5126,
      "count": 474,
      "type": "VEC2"
    },
    {
      "bufferView": 3,
      "componentType": 5123,
      "count": 1272,
      "type": "SCALAR"
    }
  ],
  "bufferViews": [
    {
      "buffer": 0,
      "byteLength": 5688,
      "byteOffset": 0,
      "target": 34962
    },
    {
      "buffer": 0,
      "byteLength": 5688,
      "byteOffset": 5688,
      "target": 34962
    },
    {
      "buffer": 0,
      "byteLength": 3792,
      "byteOffset": 11376,
      "target": 34962
    },
    {
      "buffer": 0,
      "byteLength": 2544,
      "byteOffset": 15168,
      "target": 34963
    }
  ],
  "buffers": [
    {
      "byteLength": 17712,
      "uri": "Prop_Locker.bin"
    }
  ]
}
