{
  "asset": {
    "generator": "Khronos glTF Blender I/O v4.0.44",
    "version": "2.0"
  },
  "scene": 0,
  "scenes": [
    {
      "name": "Scene",
      "nodes": [
        0
      ]
    }
  ],
  "nodes": [
    {
      "mesh": 0,
      "name": "Prop_Chair"
    }
  ],
  "materials": [
    {
      "doubleSided": true,
      "name": "MI_Trim_03_Dark",
      "pbrMetallicRoughness": {
        "baseColorFactor": [
          0.24,
          0.30,
          0.31,
          1.0
        ],
        "metallicFactor": 0.25,
        "roughnessFactor": 0.72
      }
    },
    {
      "doubleSided": true,
      "name": "MI_Trim_03",
      "pbrMetallicRoughness": {
        "baseColorFactor": [
          0.24,
          0.30,
          0.31,
          1.0
        ],
        "metallicFactor": 0.25,
        "roughnessFactor": 0.72
      }
    }
  ],
  "meshes": [
    {
      "name": "Cube.110",
      "primitives": [
        {
          "attributes": {
            "POSITION": 0,
            "NORMAL": 1,
            "TEXCOORD_0": 2
          },
          "indices": 3,
          "material": 0
        },
        {
          "attributes": {
            "POSITION": 4,
            "NORMAL": 5,
            "TEXCOORD_0": 6
          },
          "indices": 7,
          "material": 1
        }
      ]
    }
  ],
  "accessors": [
    {
      "bufferView": 0,
      "componentType": 5126,
      "count": 237,
      "max": [
        0.3944995701313019,
        1.598345160484314,
        0.5285546183586121
      ],
      "min": [
        -0.3944995701313019,
        0.42995578050613403,
        -0.46281957626342773
      ],
      "type": "VEC3"
    },
    {
      "bufferView": 1,
      "componentType": 5126,
      "count": 237,
      "type": "VEC3"
    },
    {
      "bufferView": 2,
      "componentType": 5126,
      "count": 237,
      "type": "VEC2"
    },
    {
      "bufferView": 3,
      "componentType": 5123,
      "count": 960,
      "type": "SCALAR"
    },
    {
      "bufferView": 4,
      "componentType": 5126,
      "count": 673,
      "max": [
        0.44032979011535645,
        1.6284098625183105,
        0.6331266164779663
      ],
      "min": [
        -0.44032979011535645,
        -0.013339326716959476,
        -0.4893030524253845
      ],
      "type": "VEC3"
    },
    {
      "bufferView": 5,
      "componentType": 5126,
      "count": 673,
      "type": "VEC3"
    },
    {
      "bufferView": 6,
      "componentType": 5126,
      "count": 673,
      "type": "VEC2"
    },
    {
      "bufferView": 7,
      "componentType": 5123,
      "count": 2442,
      "type": "SCALAR"
    }
  ],
  "bufferViews": [
    {
      "buffer": 0,
      "byteLength": 2844,
      "byteOffset": 0,
      "target": 34962
    },
    {
      "buffer": 0,
      "byteLength": 2844,
      "byteOffset": 2844,
      "target": 34962
    },
    {
      "buffer": 0,
      "byteLength": 1896,
      "byteOffset": 5688,
      "target": 34962
    },
    {
      "buffer": 0,
      "byteLength": 1920,
      "byteOffset": 7584,
      "target": 34963
    },
    {
      "buffer": 0,
      "byteLength": 8076,
      "byteOffset": 9504,
      "target": 34962
    },
    {
      "buffer": 0,
      "byteLength": 8076,
      "byteOffset": 17580,
      "target": 34962
    },
    {
      "buffer": 0,
      "byteLength": 5384,
      "byteOffset": 25656,
      "target": 34962
    },
    {
      "buffer": 0,
      "byteLength": 4884,
      "byteOffset": 31040,
      "target": 34963
    }
  ],
  "buffers": [
    {
      "byteLength": 35924,
      "uri": "Prop_Chair.bin"
    }
  ]
}
