{
  "asset": {
    "generator": "Khronos glTF Blender I/O v4.0.44",
    "version": "2.0"
  },
  "extensionsUsed": [
    "KHR_materials_specular",
    "KHR_materials_ior"
  ],
  "scene": 0,
  "scenes": [
    {
      "name": "Scene",
      "nodes": [
        0
      ]
    }
  ],
  "nodes": [
    {
      "mesh": 0,
      "name": "Prop_Desk_Medium"
    }
  ],
  "materials": [
    {
      "doubleSided": true,
      "name": "MI_Trim_03_Dark",
      "pbrMetallicRoughness": {
        "baseColorFactor": [
          0.24,
          0.30,
          0.31,
          1.0
        ],
        "metallicFactor": 0.25,
        "roughnessFactor": 0.72
      }
    },
    {
      "doubleSided": true,
      "name": "MI_Trim_03",
      "pbrMetallicRoughness": {
        "baseColorFactor": [
          0.24,
          0.30,
          0.31,
          1.0
        ],
        "metallicFactor": 0.25,
        "roughnessFactor": 0.72
      }
    },
    {
      "doubleSided": true,
      "name": "MI_Trim_01",
      "pbrMetallicRoughness": {
        "baseColorFactor": [
          0.24,
          0.30,
          0.31,
          1.0
        ],
        "metallicFactor": 0.25,
        "roughnessFactor": 0.72
      }
    }
  ],
  "meshes": [
    {
      "name": "Cube.109",
      "primitives": [
        {
          "attributes": {
            "POSITION": 0,
            "NORMAL": 1,
            "TEXCOORD_0": 2
          },
          "indices": 3,
          "material": 0
        },
        {
          "attributes": {
            "POSITION": 4,
            "NORMAL": 5,
            "TEXCOORD_0": 6
          },
          "indices": 7,
          "material": 1
        },
        {
          "attributes": {
            "POSITION": 8,
            "NORMAL": 9,
            "TEXCOORD_0": 10
          },
          "indices": 11,
          "material": 2
        }
      ]
    }
  ],
  "accessors": [
    {
      "bufferView": 0,
      "componentType": 5126,
      "count": 280,
      "max": [
        1.4215593338012695,
        0.9396036267280579,
        0.49999985098838806
      ],
      "min": [
        -1.4215593338012695,
        0.0888858512043953,
        -0.5288804173469543
      ],
      "type": "VEC3"
    },
    {
      "bufferView": 1,
      "componentType": 5126,
      "count": 280,
      "type": "VEC3"
    },
    {
      "bufferView": 2,
      "componentType": 5126,
      "count": 280,
      "type": "VEC2"
    },
    {
      "bufferView": 3,
      "componentType": 5123,
      "count": 768,
      "type": "SCALAR"
    },
    {
      "bufferView": 4,
      "componentType": 5126,
      "count": 96,
      "max": [
        1.3898248672485352,
        0.9396036267280579,
        0.49999985098838806
      ],
      "min": [
        -1.3898248672485352,
        0.0888858214020729,
        -0.5000001788139343
      ],
      "type": "VEC3"
    },
    {
      "bufferView": 5,
      "componentType": 5126,
      "count": 96,
      "type": "VEC3"
    },
    {
      "bufferView": 6,
      "componentType": 5126,
      "count": 96,
      "type": "VEC2"
    },
    {
      "bufferView": 7,
      "componentType": 5123,
      "count": 264,
      "type": "SCALAR"
    },
    {
      "bufferView": 8,
      "componentType": 5126,
      "count": 176,
      "max": [
        1.4042384624481201,
        0.08888597786426544,
        0.48737120628356934
      ],
      "min": [
        -1.4042384624481201,
        -8.263447170975269E-8,
        -0.5072067975997925
      ],
      "type": "VEC3"
    },
    {
      "bufferView": 9,
      "componentType": 5126,
      "count": 176,
      "type": "VEC3"
    },
    {
      "bufferView": 10,
      "componentType": 5126,
      "count": 176,
      "type": "VEC2"
    },
    {
      "bufferView": 11,
      "componentType": 5123,
      "count": 480,
      "type": "SCALAR"
    }
  ],
  "bufferViews": [
    {
      "buffer": 0,
      "byteLength": 3360,
      "byteOffset": 0,
      "target": 34962
    },
    {
      "buffer": 0,
      "byteLength": 3360,
      "byteOffset": 3360,
      "target": 34962
    },
    {
      "buffer": 0,
      "byteLength": 2240,
      "byteOffset": 6720,
      "target": 34962
    },
    {
      "buffer": 0,
      "byteLength": 1536,
      "byteOffset": 8960,
      "target": 34963
    },
    {
      "buffer": 0,
      "byteLength": 1152,
      "byteOffset": 10496,
      "target": 34962
    },
    {
      "buffer": 0,
      "byteLength": 1152,
      "byteOffset": 11648,
      "target": 34962
    },
    {
      "buffer": 0,
      "byteLength": 768,
      "byteOffset": 12800,
      "target": 34962
    },
    {
      "buffer": 0,
      "byteLength": 528,
      "byteOffset": 13568,
      "target": 34963
    },
    {
      "buffer": 0,
      "byteLength": 2112,
      "byteOffset": 14096,
      "target": 34962
    },
    {
      "buffer": 0,
      "byteLength": 2112,
      "byteOffset": 16208,
      "target": 34962
    },
    {
      "buffer": 0,
      "byteLength": 1408,
      "byteOffset": 18320,
      "target": 34962
    },
    {
      "buffer": 0,
      "byteLength": 960,
      "byteOffset": 19728,
      "target": 34963
    }
  ],
  "buffers": [
    {
      "byteLength": 20688,
      "uri": "Prop_Desk_Medium.bin"
    }
  ]
}
